<svg width="732" height="147" viewBox="0 0 732 147" fill="none" xmlns="http://www.w3.org/2000/svg">
<path d="M131.89 0.899902H14.2097C6.36191 0.899902 0 7.26181 0 15.1096V132.79C0 140.638 6.36191 147 14.2097 147H131.89C139.738 147 146.1 140.638 146.1 132.79V15.1096C146.1 7.26181 139.738 0.899902 131.89 0.899902Z" fill="#008236"/>
<path fill-rule="evenodd" clip-rule="evenodd" d="M31.7971 54.1062V47.897L73.0503 27.2728L114.304 47.897V54.1062H31.7971ZM75.582 60.1103V89.6705H70.5186V60.1103H75.582ZM103.241 60.1103V89.6705H98.1825V60.1103H103.241ZM47.9181 60.1103V89.6705H42.8596V60.1103H47.9181ZM36.8555 60.1103V92.6726C36.8555 93.4688 37.1718 94.2324 37.7348 94.7954C38.2978 95.3584 39.0614 95.6746 39.8576 95.6746H50.9202C51.7164 95.6746 52.4799 95.3584 53.0429 94.7954C53.6059 94.2324 53.9222 93.4688 53.9222 92.6726V60.1103H64.5145V92.6726C64.5145 93.4688 64.8308 94.2324 65.3937 94.7954C65.9567 95.3584 66.7203 95.6746 67.5165 95.6746H78.5841C79.3803 95.6746 80.1439 95.3584 80.7069 94.7954C81.2699 94.2324 81.5861 93.4688 81.5861 92.6726V60.1103H92.1784V92.6726C92.1784 93.4688 92.4947 94.2324 93.0577 94.7954C93.6207 95.3584 94.3843 95.6746 95.1805 95.6746H106.243C107.039 95.6746 107.803 95.3584 108.366 94.7954C108.929 94.2324 109.245 93.4688 109.245 92.6726V60.1103H117.306C118.102 60.1103 118.865 59.794 119.428 59.231C119.991 58.668 120.308 57.9045 120.308 57.1083V46.0457C120.308 45.4877 120.152 44.9407 119.859 44.4661C119.566 43.9915 119.146 43.6081 118.647 43.3589L74.3912 21.2287C73.9748 21.0208 73.5157 20.9126 73.0503 20.9126C72.5849 20.9126 72.1258 21.0208 71.7094 21.2287L27.4541 43.3589C26.9549 43.6081 26.535 43.9915 26.2416 44.4661C25.9481 44.9407 25.7928 45.4877 25.793 46.0457V57.1083C25.793 57.9045 26.1093 58.668 26.6723 59.231C27.2352 59.794 27.9988 60.1103 28.795 60.1103H36.8555Z" fill="white"/>
<path fill-rule="evenodd" clip-rule="evenodd" d="M114.304 107.933V116.564H31.7971V107.933H114.304ZM120.308 104.931C120.308 104.537 120.23 104.147 120.079 103.782C119.928 103.418 119.707 103.087 119.428 102.808C119.15 102.53 118.819 102.309 118.454 102.158C118.09 102.007 117.7 101.929 117.306 101.929H28.795C28.4008 101.929 28.0104 102.007 27.6462 102.158C27.282 102.309 26.951 102.53 26.6723 102.808C26.3935 103.087 26.1724 103.418 26.0215 103.782C25.8706 104.147 25.793 104.537 25.793 104.931V119.566C25.793 120.362 26.1093 121.126 26.6723 121.689C27.2352 122.252 27.9988 122.568 28.795 122.568H117.306C118.102 122.568 118.865 122.252 119.428 121.689C119.991 121.126 120.308 120.362 120.308 119.566V104.931Z" fill="white"/>
<path d="M193.952 108.95H180.452L205.032 39.1318H220.646L245.259 108.95H231.759L213.111 53.45H212.566L193.952 108.95ZM194.396 81.575H231.214V91.734H194.396V81.575ZM253.91 108.95V56.5863H265.876V65.3136H266.421C267.376 62.2909 269.012 59.9613 271.33 58.325C273.671 56.6659 276.342 55.8363 279.342 55.8363C280.023 55.8363 280.785 55.8704 281.626 55.9386C282.489 55.984 283.205 56.0636 283.773 56.1772V67.5295C283.251 67.3477 282.421 67.1886 281.285 67.0522C280.171 66.8931 279.092 66.8136 278.046 66.8136C275.796 66.8136 273.773 67.3022 271.978 68.2795C270.205 69.234 268.807 70.5636 267.785 72.2681C266.762 73.9727 266.251 75.9386 266.251 78.1659V108.95H253.91ZM312.589 129.677C308.157 129.677 304.35 129.075 301.168 127.87C297.986 126.689 295.43 125.098 293.498 123.098C291.566 121.098 290.225 118.882 289.475 116.45L300.589 113.757C301.089 114.779 301.816 115.791 302.771 116.791C303.725 117.814 305.009 118.654 306.623 119.314C308.259 119.995 310.316 120.336 312.793 120.336C316.293 120.336 319.191 119.484 321.486 117.779C323.782 116.098 324.93 113.325 324.93 109.461V99.5409H324.316C323.68 100.814 322.748 102.12 321.521 103.461C320.316 104.802 318.714 105.927 316.714 106.836C314.736 107.745 312.248 108.2 309.248 108.2C305.225 108.2 301.577 107.257 298.305 105.37C295.055 103.461 292.464 100.62 290.532 96.8477C288.623 93.0522 287.668 88.3022 287.668 82.5977C287.668 76.8477 288.623 71.9954 290.532 68.0409C292.464 64.0636 295.066 61.0522 298.339 59.0068C301.611 56.9386 305.259 55.9045 309.282 55.9045C312.35 55.9045 314.873 56.4272 316.85 57.4727C318.85 58.4954 320.441 59.734 321.623 61.1886C322.805 62.6204 323.702 63.9727 324.316 65.2454H324.998V56.5863H337.168V109.802C337.168 114.279 336.1 117.984 333.964 120.916C331.827 123.848 328.907 126.041 325.202 127.495C321.498 128.95 317.293 129.677 312.589 129.677ZM312.691 98.5181C315.305 98.5181 317.532 97.8818 319.373 96.609C321.214 95.3363 322.611 93.5068 323.566 91.1204C324.521 88.734 324.998 85.8704 324.998 82.5295C324.998 79.234 324.521 76.3477 323.566 73.8704C322.634 71.3931 321.248 69.4727 319.407 68.109C317.589 66.7227 315.35 66.0295 312.691 66.0295C309.941 66.0295 307.646 66.7454 305.805 68.1772C303.964 69.609 302.577 71.575 301.646 74.075C300.714 76.5522 300.248 79.3704 300.248 82.5295C300.248 85.734 300.714 88.5409 301.646 90.95C302.6 93.3363 303.998 95.2 305.839 96.5409C307.702 97.859 309.986 98.5181 312.691 98.5181ZM372.998 109.973C367.748 109.973 363.214 108.882 359.396 106.7C355.6 104.495 352.68 101.382 350.634 97.359C348.589 93.3136 347.566 88.5522 347.566 83.075C347.566 77.6886 348.589 72.9613 350.634 68.8931C352.702 64.8022 355.589 61.6204 359.293 59.3477C362.998 57.0522 367.35 55.9045 372.35 55.9045C375.577 55.9045 378.623 56.4272 381.486 57.4727C384.373 58.4954 386.918 60.0863 389.123 62.2454C391.35 64.4045 393.1 67.1545 394.373 70.4954C395.646 73.8136 396.282 77.7681 396.282 82.359V86.1431H353.361V77.825H384.452C384.43 75.4613 383.918 73.359 382.918 71.5181C381.918 69.6545 380.521 68.1886 378.725 67.1204C376.952 66.0522 374.884 65.5181 372.521 65.5181C369.998 65.5181 367.782 66.1318 365.873 67.359C363.964 68.5636 362.475 70.1545 361.407 72.1318C360.361 74.0863 359.827 76.234 359.805 78.575V85.8363C359.805 88.8818 360.361 91.4954 361.475 93.6772C362.589 95.8363 364.146 97.4954 366.146 98.6545C368.146 99.7909 370.486 100.359 373.168 100.359C374.964 100.359 376.589 100.109 378.043 99.609C379.498 99.0863 380.759 98.325 381.827 97.325C382.896 96.325 383.702 95.0863 384.248 93.609L395.771 94.9045C395.043 97.95 393.657 100.609 391.611 102.882C389.589 105.132 386.998 106.882 383.839 108.132C380.68 109.359 377.066 109.973 372.998 109.973ZM419.063 78.2681V108.95H406.722V56.5863H418.518V65.484H419.131C420.336 62.5522 422.256 60.2227 424.893 58.4954C427.552 56.7681 430.836 55.9045 434.745 55.9045C438.359 55.9045 441.506 56.6772 444.188 58.2227C446.893 59.7681 448.984 62.0068 450.461 64.9386C451.961 67.8704 452.7 71.4272 452.677 75.609V108.95H440.336V77.5181C440.336 74.0181 439.427 71.2795 437.609 69.3022C435.813 67.3249 433.325 66.3363 430.143 66.3363C427.984 66.3363 426.063 66.8136 424.381 67.7681C422.722 68.7 421.415 70.0522 420.461 71.825C419.529 73.5977 419.063 75.7454 419.063 78.2681ZM491.37 56.5863V66.1318H461.268V56.5863H491.37ZM468.7 44.0409H481.04V93.2C481.04 94.859 481.29 96.1318 481.79 97.0181C482.313 97.8818 482.995 98.4727 483.836 98.7909C484.677 99.109 485.609 99.2681 486.631 99.2681C487.404 99.2681 488.109 99.2113 488.745 99.0977C489.404 98.984 489.904 98.8818 490.245 98.7909L492.325 108.439C491.665 108.666 490.722 108.916 489.495 109.189C488.29 109.461 486.813 109.62 485.063 109.666C481.972 109.757 479.188 109.291 476.711 108.268C474.234 107.223 472.268 105.609 470.813 103.427C469.381 101.245 468.677 98.5181 468.7 95.2454V44.0409Z" fill="#008236"/>
<path d="M518.373 108.95V39.1318H541.93C546.475 39.1318 550.259 39.9272 553.282 41.5181C556.327 43.109 558.611 45.2795 560.134 48.0295C561.657 50.7795 562.418 53.9045 562.418 57.4045C562.418 60.3136 561.93 62.8022 560.952 64.8704C559.975 66.9386 558.646 68.609 556.964 69.8818C555.282 71.1545 553.407 72.075 551.339 72.6431V73.1886C553.589 73.3477 555.771 74.1431 557.884 75.575C559.998 76.984 561.736 78.9613 563.1 81.5068C564.464 84.0522 565.146 87.0977 565.146 90.6431C565.146 94.1659 564.361 97.3136 562.793 100.086C561.225 102.836 558.816 105.007 555.566 106.598C552.339 108.166 548.225 108.95 543.225 108.95H518.373ZM524.748 103.223H543.225C548.611 103.223 552.589 102.029 555.157 99.6431C557.748 97.2568 559.043 94.2568 559.043 90.6431C559.043 87.984 558.396 85.575 557.1 83.4159C555.827 81.234 554.021 79.5068 551.68 78.234C549.361 76.9613 546.634 76.325 543.498 76.325H524.748V103.223ZM524.748 70.6659H542.509C545.259 70.6659 547.668 70.0977 549.736 68.9613C551.805 67.8249 553.418 66.2568 554.577 64.2568C555.736 62.2568 556.316 59.9727 556.316 57.4045C556.316 53.6999 555.111 50.6886 552.702 48.3704C550.293 46.0295 546.702 44.859 541.93 44.859H524.748V70.6659ZM593.893 110.143C590.734 110.143 587.847 109.529 585.234 108.302C582.62 107.052 580.54 105.257 578.995 102.916C577.45 100.552 576.677 97.6886 576.677 94.325C576.677 91.734 577.165 89.5522 578.143 87.7795C579.12 86.0068 580.506 84.5522 582.302 83.4159C584.097 82.2795 586.222 81.3818 588.677 80.7227C591.131 80.0636 593.836 79.5522 596.79 79.1886C599.722 78.825 602.2 78.5068 604.222 78.234C606.268 77.9613 607.825 77.5295 608.893 76.9386C609.961 76.3477 610.495 75.3931 610.495 74.075V72.8477C610.495 69.2795 609.427 66.4727 607.29 64.4272C605.177 62.359 602.131 61.325 598.154 61.325C594.381 61.325 591.302 62.1545 588.915 63.8136C586.552 65.4727 584.893 67.4272 583.938 69.6772L578.177 67.5977C579.359 64.734 580.995 62.4499 583.086 60.7454C585.177 59.0181 587.518 57.7795 590.109 57.0295C592.7 56.2568 595.325 55.8704 597.984 55.8704C599.984 55.8704 602.063 56.1318 604.222 56.6545C606.404 57.1772 608.427 58.0863 610.29 59.3818C612.154 60.6545 613.665 62.4386 614.825 64.734C615.984 67.0068 616.563 69.8931 616.563 73.3931V108.95H610.495V100.666H610.12C609.393 102.211 608.313 103.711 606.881 105.166C605.45 106.62 603.654 107.814 601.495 108.745C599.336 109.677 596.802 110.143 593.893 110.143ZM594.711 104.586C597.938 104.586 600.734 103.87 603.097 102.439C605.461 101.007 607.279 99.109 608.552 96.7454C609.847 94.359 610.495 91.734 610.495 88.8704V81.3022C610.04 81.734 609.279 82.1204 608.211 82.4613C607.165 82.8022 605.95 83.109 604.563 83.3818C603.2 83.6318 601.836 83.8477 600.472 84.0295C599.109 84.2113 597.881 84.3704 596.79 84.5068C593.836 84.8704 591.313 85.4386 589.222 86.2113C587.131 86.984 585.529 88.0522 584.415 89.4159C583.302 90.7568 582.745 92.484 582.745 94.5977C582.745 97.7795 583.881 100.245 586.154 101.995C588.427 103.723 591.279 104.586 594.711 104.586ZM638.773 76.2227V108.95H632.705V56.5863H638.603V64.8022H639.148C640.376 62.1204 642.285 59.9727 644.876 58.359C647.489 56.7227 650.717 55.9045 654.557 55.9045C658.08 55.9045 661.171 56.6431 663.83 58.1204C666.512 59.5749 668.592 61.7227 670.069 64.5636C671.569 67.4045 672.319 70.8931 672.319 75.0295V108.95H666.251V75.4045C666.251 71.109 665.046 67.7113 662.637 65.2113C660.251 62.7113 657.046 61.4613 653.023 61.4613C650.273 61.4613 647.83 62.0522 645.694 63.234C643.557 64.4159 641.864 66.1204 640.614 68.3477C639.387 70.5522 638.773 73.1772 638.773 76.2227ZM693.822 89.1772L693.754 81.234H695.117L719.663 56.5863H727.333L703.094 80.859L702.549 80.9613L693.822 89.1772ZM688.299 108.95V39.1318H694.367V108.95H688.299ZM720.924 108.95L699.651 82.0522L704.015 77.859L728.697 108.95H720.924Z" fill="#00A63E"/>
</svg>
